<svg aria-hidden="true" style="width:0;height:0;position:absolute;overflow:hidden" xmlns="http://www.w3.org/2000/svg"><defs><symbol id="icon-glass-bolder" viewBox="0 0 32 32"><path d="m31.242 27.37-7.357-7.358a12.863 12.863 0 0 0 1.976-6.866c0-7.141-5.789-12.93-12.931-12.93S0 6.005 0 13.146c0 7.142 5.789 12.93 12.93 12.93a12.87 12.87 0 0 0 7.385-2.318l7.269 7.27c.505.505 1.167.756 1.829.756s1.324-.251 1.829-.756a2.588 2.588 0 0 0-.001-3.658zM12.93 21.887a8.74 8.74 0 1 1 0-17.48 8.74 8.74 0 0 1 0 17.48z"/></symbol><symbol id="icon-glass" viewBox="0 0 32 32"><path d="m30.938 29.131-7.45-7.45a12.789 12.789 0 0 0 2.906-8.144c0-7.094-5.756-12.85-12.85-12.85C6.444.687.688 6.443.688 13.543s5.756 12.856 12.856 12.856c3.088 0 5.925-1.087 8.144-2.906l7.444 7.444c.5.5 1.306.5 1.806 0s.5-1.306 0-1.806zM3.237 13.544c0-5.688 4.612-10.3 10.3-10.3s10.3 4.612 10.3 10.3-4.613 10.3-10.3 10.3c-5.688 0-10.3-4.613-10.3-10.3z"/></symbol></defs></svg>