<svg aria-hidden="true" style="position: absolute; width: 0; height: 0; overflow: hidden;" version="1.1" xmlns="http://www.w3.org/2000/svg" xmlns:xlink="http://www.w3.org/1999/xlink">
<defs>
<symbol id="icon-glass-bolder" viewBox="0 0 32 32">
<path d="M31.242 27.37l-7.357-7.358c1.25-1.99 1.976-4.342 1.976-6.866 0-7.141-5.789-12.93-12.931-12.93s-12.93 5.789-12.93 12.93c0 7.142 5.789 12.93 12.93 12.93 2.747 0 5.292-0.859 7.385-2.318l7.269 7.27c0.505 0.505 1.167 0.756 1.829 0.756s1.324-0.251 1.829-0.756c1.009-1.011 1.009-2.647-0.001-3.658zM12.93 21.887c-4.827 0-8.74-3.913-8.74-8.74s3.913-8.74 8.74-8.74c4.827 0 8.74 3.913 8.74 8.74s-3.913 8.74-8.74 8.74z"></path>
</symbol>
<symbol id="icon-glass" viewBox="0 0 32 32">
<path d="M30.938 29.131l-7.45-7.45c1.819-2.219 2.906-5.050 2.906-8.144 0-7.094-5.756-12.85-12.85-12.85-7.1 0-12.856 5.756-12.856 12.856s5.756 12.856 12.856 12.856c3.088 0 5.925-1.087 8.144-2.906l7.444 7.444c0.5 0.5 1.306 0.5 1.806 0s0.5-1.306 0-1.806zM3.237 13.544c0-5.688 4.612-10.3 10.3-10.3s10.3 4.612 10.3 10.3-4.613 10.3-10.3 10.3c-5.688 0-10.3-4.613-10.3-10.3z"></path>
</symbol>
</defs>
</svg>
